<svg width="32" height="35" fill="none" xmlns="http://www.w3.org/2000/svg"><path d="M10.67 6.83c-.78-.78-1.125-1.163-1.124-2.058 0-.894.344-1.276 1.125-2.056A1.59 1.59 0 108.42.466c-.868.868-2.058 2.057-2.057 4.306 0 2.25 1.188 3.44 2.057 4.307.78.78 1.125 1.163 1.125 2.057a1.59 1.59 0 103.181 0c0-2.25-1.189-3.439-2.057-4.307zm7.424 0c-.78-.78-1.124-1.163-1.124-2.058 0-.894.345-1.276 1.125-2.056a1.59 1.59 0 10-2.25-2.25c-.868.868-2.057 2.057-2.057 4.306 0 2.25 1.189 3.44 2.057 4.307.78.78 1.125 1.163 1.125 2.057a1.59 1.59 0 103.182 0c0-2.25-1.19-3.439-2.058-4.307zm6.388 20.746h1.507a5.84 5.84 0 005.83-5.834 5.84 5.84 0 00-5.834-5.833H2.652a1.59 1.59 0 00-1.591 1.59v5.304c0 3.568 1.54 6.783 3.99 9.015H1.59a1.59 1.59 0 100 3.182h23.333a1.591 1.591 0 000-3.182h-3.46a12.253 12.253 0 003.018-4.242zm.973-4.773v-3.712h.53a2.654 2.654 0 012.652 2.651 2.655 2.655 0 01-2.652 2.652h-.634c.068-.52.104-1.052.104-1.591z" fill="#fff"/></svg>