<svg width="20" height="30" fill="none" xmlns="http://www.w3.org/2000/svg"><path d="M15.195 3a3 3 0 11-6 0 3 3 0 016 0zm-4.167 15.297l3.894 3.843a1.5 1.5 0 01.343.52l2.077 5.29a1.5 1.5 0 01-2.793 1.097l-1.96-4.995-6.696-6.608a1.5 1.5 0 01-.438-1.236l.537-4.74c-1.293 1.285-2.29 3.092-3.055 5.487a1.5 1.5 0 11-2.857-.912c1.402-4.395 3.73-7.685 7.638-9.193l.017-.006c.995-.37 2.03-.34 2.953.136.886.458 1.516 1.25 1.93 2.136l.486 1.05c.366.793.673 1.462.97 2.049.414.825.748 1.372 1.078 1.755.306.357.61.576.997.727.417.163 1.001.275 1.904.302a1.5 1.5 0 11-.09 2.999c-1.084-.032-2.046-.171-2.905-.506a5.407 5.407 0 01-2.182-1.568 9.275 9.275 0 01-1.013-1.477l-.835 3.85z" fill="#fff"/><path d="M5.455 19.664l2.486 2.385-1.144 3.86a1.5 1.5 0 01-.513.755l-3.85 3.017a1.499 1.499 0 01-2.415-1.363 1.5 1.5 0 01.564-1l3.474-2.72 1.047-3.533.351-1.4z" fill="#fff"/></svg>