<svg width="35" height="31" fill="none" xmlns="http://www.w3.org/2000/svg"><path d="M15.45 30.762a3.076 3.076 0 100-6.153 3.076 3.076 0 000 6.153zm10.321 0a3.076 3.076 0 100-6.153 3.076 3.076 0 000 6.153zM1.025 2.05h4.276l4.95 17.33-.387.777c-1.023 2.043.461 4.452 2.751 4.452h17.258a1.025 1.025 0 100-2.05H12.615a1.026 1.026 0 01-.917-1.485l.284-.566h17.89c.458 0 .861-.304.987-.744l4.102-14.356a1.029 1.029 0 00-.167-.899 1.028 1.028 0 00-.82-.407H8.02L7.06.744A1.026 1.026 0 006.075 0h-5.05a1.025 1.025 0 100 2.05z" fill="#fff"/></svg>