<svg width="25" height="22" fill="none" xmlns="http://www.w3.org/2000/svg"><path d="M23.465 7.523l-1.71-5.016A3.667 3.667 0 0020.391.69 3.802 3.802 0 0018.2 0H6.8c-.786 0-1.553.241-2.19.691a3.667 3.667 0 00-1.364 1.816l-1.71 5.016c-.455.186-.843.5-1.116.9A2.406 2.406 0 000 9.778v6.11c0 .903.505 1.683 1.25 2.107v2.783c0 .324.132.635.366.864.235.23.552.358.884.358h1.25c.332 0 .65-.129.884-.358.234-.23.366-.54.366-.864v-2.445h15v2.445c0 .324.132.635.366.864.235.23.553.358.884.358h1.25c.331 0 .65-.129.884-.358.234-.23.366-.54.366-.864v-2.783c.38-.213.695-.52.914-.89.22-.369.335-.789.336-1.216V9.778a2.41 2.41 0 00-.419-1.355 2.489 2.489 0 00-1.116-.9zM6.801 2.444h11.397c.538 0 1.016.335 1.186.836l1.382 4.053H4.234L5.615 3.28c.083-.243.242-.455.455-.605.213-.15.469-.23.731-.23zM4.375 14.667a1.912 1.912 0 01-1.326-.538 1.8 1.8 0 010-2.594A1.88 1.88 0 014.377 11c.498 0 .975.193 1.326.537.352.344.55.81.55 1.297 0 .487-.199.953-.55 1.297a1.897 1.897 0 01-1.327.537zm16.25 0a1.912 1.912 0 01-1.326-.538 1.8 1.8 0 010-2.594 1.88 1.88 0 01.61-.397 1.914 1.914 0 012.043.398c.352.344.55.81.55 1.297 0 .487-.199.953-.55 1.297a1.9 1.9 0 01-1.327.537z" fill="#fff"/></svg>