<svg width="248" height="58" fill="none" xmlns="http://www.w3.org/2000/svg"><path fill-rule="evenodd" clip-rule="evenodd" d="M79.994 57.649h-3.496l6.65-14.897h3.534a1630.597 1630.597 0 00-6.688 14.897zm7.068 0h-3.534l6.65-14.897h3.535a3401.604 3401.604 0 00-6.65 14.897zm-14.099 0H69.43l6.65-14.897h3.535a3411.342 3411.342 0 00-6.65 14.897zm27.058 0h3.534l-6.498-14.555-1.748 3.952c1.938 4.37 3.762 8.437 4.712 10.603zm-7.069 0h3.535l-2.965-6.65c-.646 1.443-1.254 2.773-1.748 3.951.494 1.065.874 2.015 1.178 2.699zm14.099 0h3.534l-6.65-14.897h-3.496c2.584 5.852 5.358 12.046 6.612 14.897zm7.449-14.897l6.65 14.897h3.534c-1.254-2.85-4.028-9.045-6.65-14.897H114.5zm7.068 0l6.65 14.897h3.534c-1.254-2.85-4.028-9.045-6.65-14.897h-3.534zm-14.099 0l6.65 14.897h3.535c-1.254-2.85-4.029-9.045-6.651-14.897h-3.534zm23.827 0l-1.33 3.04-1.368-3.04h2.698zm7.069 0L133.5 53.696c-.532-1.216-1.14-2.546-1.748-3.952l3.117-6.954h3.496m7.182 14.859h-3.534l6.65-14.897h3.534a3403.868 3403.868 0 00-6.65 14.897zm7.03 0h-3.496l6.65-14.897h3.535c-2.66 5.852-5.397 12.046-6.689 14.897zm-14.098 0h-3.534l6.65-14.897h3.534c-2.622 5.852-5.358 12.046-6.65 14.897zm27.095 0h3.534l-6.498-14.555-1.748 3.952c1.938 4.37 3.724 8.437 4.712 10.603zm-7.068 0h3.534l-2.964-6.65c-.646 1.443-1.254 2.773-1.748 3.951a224.3 224.3 0 001.178 2.699zm14.098 0h3.534l-6.65-14.897h-3.534a3403.868 3403.868 0 016.65 14.897zm6.499-17.025l7.6 17.025h3.534c-2.09-4.75-8.322-18.66-11.096-24.93v7.905m6.346-9.386h-3.534l11.78 26.449h3.534c-2.318-5.206-9.5-21.281-11.78-26.45zm-12.503 11.514l6.651 14.897h3.534c-1.254-2.85-4.028-9.045-6.65-14.897h-3.535zm25.462-11.514h3.534l-6.499 14.554-1.748-3.952c1.938-4.37 3.763-8.436 4.713-10.603zm-7.031 0h3.534l-2.964 6.65c-.646-1.444-1.254-2.774-1.748-3.952.456-1.064.836-1.976 1.178-2.698zm14.099 0h3.534l-9.994 22.459c-.532-1.216-1.14-2.547-1.748-3.953a2275.19 2275.19 0 018.208-18.506zM94.587 28.881H82.464l-3.154 7.183h-5.168L85.96 9.234l2.584 5.89c0 .077-3.686 8.4-4.066 9.235h8.133l1.976 4.522zm-72.014 0H10.45l-3.154 7.183H2.128l11.819-26.83 2.584 5.89c0 .077-3.686 8.4-4.066 9.235h8.132l1.976 4.522zm82.046 7.183h-5.168L86.796 7.334h5.168l12.655 28.73zm68.745-28.882H168.5v12.465h-1.976l1.976 4.522v11.743h4.864V7.182zm-8.512 12.465h-9.348V7.182h-4.865v28.73h4.865V24.169h11.362l-2.014-4.522zM133.5 21.205c-3.382-2.014-7.904-1.862-10.906-3.914-1.672-1.14-1.824-3.762-.304-5.055l-1.9-4.256c-2.47 1.292-4.028 3.649-4.256 6.46-.304 4.257 2.47 7.183 6.27 8.513 2.508.874 5.51 1.14 7.828 2.394 1.9 1.026 2.66 2.66 1.482 4.598l2.052 4.675c4.865-3.306 4.713-10.45-.266-13.415zm-2.888 9.842c-.988.646-2.28.837-3.458.837-3.116 0-6.156-1.255-9.044-3.8l-3.04 3.648c2.736 2.774 7.524 4.56 11.97 4.636 1.976.038 3.876-.342 5.472-1.064l-1.9-4.257zm-6.954-19.57c3.078-1.027 7.942.265 10.146 2.28l2.585-3.649c-3.687-3.078-9.957-4.37-14.593-2.774l1.862 4.143zm-75.016.265h-4.256l-1.938-4.408h4.256l1.938 4.409zm17.595 24.322H61.07c-2.052-4.674-4.104-9.349-6.194-14.023h2.014c2.85 0 5.13-2.318 5.13-5.13 0-2.85-2.318-5.13-5.13-5.13h-6.537l-1.938-4.409h8.513c5.282 0 9.576 4.294 9.576 9.577 0 3.61-2.014 6.764-4.978 8.398l4.712 10.717zm-11.096-9.615h-6.765v9.615h-4.864V22.04h9.69l1.939 4.408zm-22.535 9.615h-5.169L14.783 7.334h5.168l12.655 28.73zM145.015.304h34.088v42.448h-34.088V.304zm-36.254 0h34.392v42.448h-34.392V.304zm-36.254 0H106.9v42.448H72.507V.304zm-36.253 0h34.391v42.448H36.254V.304zM0 .304h34.392v42.448H0V.304zm231.279 23.029c0-.722-.152-1.33-.532-1.786-.38-.456-.874-.684-1.558-.684-.38 0-.684.076-.988.228-.266.152-.532.342-.722.57-.19.228-.342.494-.456.798-.114.304-.19.608-.228.912h4.484v-.038zm-6.194.874c0-.798.114-1.482.342-2.09.228-.608.532-1.102.912-1.482.38-.38.836-.684 1.33-.874a4.17 4.17 0 011.52-.304c1.216 0 2.128.38 2.774 1.14.646.76.95 1.9.95 3.458v.57h-6.156c.076.95.342 1.634.798 2.128.456.494 1.216.722 2.204.722.57 0 1.026-.038 1.444-.152.38-.114.684-.19.874-.304l.228 1.368c-.19.114-.532.228-1.026.342a7.492 7.492 0 01-1.672.19c-.798 0-1.444-.114-2.014-.342a3.766 3.766 0 01-1.406-.988c-.38-.418-.646-.912-.836-1.482-.152-.608-.266-1.216-.266-1.9zm-2.85-4.712c.152 0 .304 0 .494.038.19 0 .342.038.532.076s.342.076.494.076c.152.038.266.038.304.076l-.266 1.406c-.114-.038-.342-.114-.646-.152a4.796 4.796 0 00-1.14-.114 3.24 3.24 0 00-.874.114c-.304.076-.494.114-.57.114v7.562h-1.596v-8.626c.38-.152.836-.266 1.406-.38a9.35 9.35 0 011.862-.19zm-8.779.19h3.421v1.368h-3.421v4.142c0 .456.038.836.114 1.102.076.304.19.532.304.684.152.152.304.304.532.342.19.076.456.114.722.114.494 0 .875-.038 1.179-.152.304-.114.494-.19.608-.228l.304 1.33c-.152.076-.456.19-.836.304-.419.114-.875.19-1.369.19-.608 0-1.102-.076-1.52-.228-.38-.152-.722-.38-.95-.684a2.607 2.607 0 01-.494-1.14c-.114-.456-.152-.988-.152-1.596v-8.018l1.596-.266v2.736h-.038zm-11.4.266c.38-.076.874-.19 1.482-.304.608-.114 1.33-.152 2.128-.152.722 0 1.292.114 1.786.304.456.19.836.494 1.14.836.266.38.494.798.608 1.292.114.494.19 1.064.19 1.672v5.054h-1.596v-4.712c0-.57-.038-1.026-.114-1.406-.076-.38-.19-.722-.38-.95a1.857 1.857 0 00-.684-.532c-.304-.114-.646-.152-1.064-.152h-.532c-.19 0-.342.038-.532.038-.152 0-.304.038-.456.076-.114.038-.228.038-.304.038v7.6h-1.596v-8.702h-.076zm-4.028 3.382c0-.722-.152-1.33-.532-1.786-.38-.456-.874-.684-1.558-.684-.38 0-.685.076-.989.228-.266.152-.532.342-.722.57-.19.228-.342.494-.456.798-.114.304-.19.608-.228.912h4.485v-.038zm-6.157.874c0-.798.114-1.482.342-2.09.228-.608.532-1.102.912-1.482.38-.38.836-.684 1.33-.874.494-.19.989-.304 1.521-.304 1.216 0 2.128.38 2.774 1.14.646.76.95 1.9.95 3.458v.57h-6.157c.076.95.342 1.634.798 2.128.456.494 1.217.722 2.205.722.57 0 1.026-.038 1.444-.152.38-.114.684-.19.874-.304l.228 1.368c-.19.114-.532.228-1.026.342a7.492 7.492 0 01-1.672.19c-.798 0-1.445-.114-2.015-.342a3.766 3.766 0 01-1.406-.988c-.38-.418-.646-.912-.836-1.482-.19-.608-.266-1.216-.266-1.9zm-4.712 4.75a6.608 6.608 0 01-2.318-.418 4.823 4.823 0 01-1.786-1.216c-.494-.532-.874-1.178-1.14-1.976-.266-.76-.418-1.672-.418-2.66 0-.988.152-1.9.456-2.66.304-.76.722-1.444 1.254-1.976a5.297 5.297 0 011.824-1.216 6.14 6.14 0 012.204-.418c.494 0 .95.038 1.33.114.38.076.76.152 1.026.228.304.076.532.19.722.266.19.076.304.152.38.19l-.494 1.368a2.53 2.53 0 00-.456-.228 7.174 7.174 0 00-.684-.228 6.074 6.074 0 00-.798-.19c-.304-.038-.608-.076-.874-.076-.646 0-1.216.114-1.71.342-.494.228-.95.532-1.292.95a4.499 4.499 0 00-.836 1.52 6.595 6.595 0 00-.304 2.014c0 .722.076 1.368.266 1.938a4.09 4.09 0 00.76 1.52c.342.418.76.76 1.254.988.494.228 1.102.342 1.748.342.76 0 1.406-.076 1.938-.228.494-.152.874-.304 1.14-.418l.418 1.368c-.076.076-.228.114-.418.228-.19.076-.456.152-.76.266a7.31 7.31 0 01-1.102.19c-.38.038-.836.076-1.33.076zm57.307-17.366c.646 0 1.14-.076 1.444-.266.304-.19.494-.457.494-.836 0-.38-.152-.723-.456-.95-.304-.229-.836-.495-1.558-.76-.342-.153-.684-.267-.988-.419-.304-.152-.608-.304-.836-.494a2.187 2.187 0 01-.57-.722c-.152-.266-.19-.608-.19-1.026 0-.798.304-1.444.874-1.9.57-.456 1.406-.684 2.394-.684.266 0 .494 0 .76.038s.494.076.722.114c.228.038.418.076.57.114.152.038.304.076.38.114l-.304 1.368c-.19-.076-.456-.19-.798-.304-.38-.114-.798-.152-1.33-.152-.456 0-.836.076-1.178.266-.342.19-.494.456-.494.836 0 .19.038.38.114.532.076.152.19.304.342.418.152.114.342.228.57.342.228.114.494.228.836.342a7.91 7.91 0 011.14.494c.342.152.608.342.874.532.228.19.418.456.532.76.114.304.19.646.19 1.064 0 .836-.304 1.445-.912 1.9-.608.419-1.482.647-2.622.647-.798 0-1.406-.076-1.862-.19-.456-.114-.76-.228-.912-.304l.304-1.368c.19.075.494.19.874.303.38.115.912.19 1.596.19zm-7.715 0c.647 0 1.141-.076 1.445-.266.304-.19.494-.457.494-.836 0-.38-.152-.723-.456-.95-.304-.229-.836-.495-1.559-.76-.342-.153-.684-.267-.988-.419-.304-.152-.608-.304-.836-.494a2.187 2.187 0 01-.57-.722c-.152-.266-.19-.608-.19-1.026 0-.798.304-1.444.874-1.9.57-.456 1.406-.684 2.395-.684.266 0 .494 0 .76.038s.494.076.722.114c.228.038.418.076.57.114.152.038.304.076.38.114l-.304 1.368c-.19-.076-.456-.19-.798-.304-.38-.114-.798-.152-1.33-.152-.457 0-.837.076-1.179.266-.342.19-.494.456-.494.836 0 .19.038.38.114.532.076.152.19.304.342.418.152.114.342.228.57.342.228.114.495.228.837.342a7.91 7.91 0 011.14.494c.342.152.608.342.874.532.228.19.418.456.532.76.114.304.19.646.19 1.064 0 .836-.304 1.445-.912 1.9-.608.419-1.482.647-2.623.647-.798 0-1.406-.076-1.862-.19-.456-.114-.76-.228-.912-.304l.304-1.368c.19.075.494.19.874.303.38.115.912.19 1.596.19zm-6.118-4.18c0-.723-.152-1.33-.532-1.787-.38-.456-.874-.684-1.558-.684-.38 0-.684.076-.988.228-.266.152-.532.342-.722.57-.19.228-.342.494-.456.798-.114.304-.19.608-.228.912h4.484V7.41zm-6.156.873c0-.798.114-1.482.342-2.09.228-.608.532-1.102.912-1.482.38-.38.836-.684 1.33-.874a4.17 4.17 0 011.52-.304c1.216 0 2.128.38 2.774 1.14.646.76.95 1.9.95 3.458v.57h-6.156c.076.95.342 1.634.798 2.129.456.494 1.216.722 2.204.722.57 0 1.026-.038 1.444-.153.38-.114.684-.19.874-.303l.228 1.368c-.19.114-.532.228-1.026.342a7.492 7.492 0 01-1.672.19c-.798 0-1.444-.114-2.014-.342a3.767 3.767 0 01-1.406-.988c-.38-.418-.646-.912-.836-1.482-.19-.609-.266-1.217-.266-1.9zm-9.425-4.256c.38-.076.874-.19 1.483-.304.608-.114 1.33-.152 2.128-.152.722 0 1.292.114 1.786.304.456.19.836.494 1.14.836.266.38.494.798.608 1.292.114.494.19 1.064.19 1.672v5.055h-1.596V8.018c0-.57-.038-1.026-.114-1.406-.076-.38-.19-.722-.38-.95a1.857 1.857 0 00-.684-.532c-.304-.114-.646-.152-1.064-.152h-.532c-.19 0-.342.038-.532.038-.152 0-.304.038-.456.076-.114.038-.228.038-.304.038v7.6h-1.597V4.029h-.076zm-3.572-1.9a.973.973 0 01-.722-.304 1.061 1.061 0 01-.304-.76A1.038 1.038 0 01211.48 0c.304 0 .532.114.722.304.19.19.304.456.304.76s-.114.57-.304.76c-.19.228-.456.304-.722.304zm.798 10.64h-1.596V3.763h1.596v9.007zm-7.22-1.177c.646 0 1.14-.076 1.444-.266.304-.19.494-.457.494-.836 0-.38-.152-.723-.456-.95-.304-.229-.836-.495-1.558-.76-.342-.153-.684-.267-.988-.419-.304-.152-.608-.304-.836-.494a2.187 2.187 0 01-.57-.722c-.152-.266-.19-.608-.19-1.026 0-.798.304-1.444.874-1.9.57-.456 1.406-.684 2.394-.684.266 0 .494 0 .76.038s.494.076.722.114c.228.038.418.076.57.114.152.038.304.076.38.114l-.304 1.368c-.19-.076-.456-.19-.798-.304-.38-.114-.798-.152-1.33-.152-.456 0-.836.076-1.178.266-.342.19-.494.456-.494.836 0 .19.038.38.114.532.076.152.19.304.342.418.152.114.342.228.57.342.228.114.494.228.836.342a7.91 7.91 0 011.14.494c.342.152.608.342.874.532.228.19.418.456.532.76.114.304.19.646.19 1.064 0 .836-.304 1.445-.912 1.9-.608.419-1.482.647-2.622.647-.798 0-1.406-.076-1.862-.19-.456-.114-.76-.228-.912-.304l.304-1.368c.19.075.494.19.874.303.38.115.912.19 1.596.19zm-4.864.912c-.38.076-.874.19-1.444.304-.608.114-1.292.152-2.09.152-.684 0-1.293-.114-1.749-.304a2.873 2.873 0 01-1.14-.874 3.125 3.125 0 01-.608-1.293 7.492 7.492 0 01-.19-1.672V3.762h1.596v4.712c0 1.102.19 1.862.532 2.357.342.456.913.722 1.749.722h.532c.19 0 .342-.038.532-.038.152 0 .304-.039.456-.039a.714.714 0 00.304-.076V3.8h1.596v8.703h-.076zm-16.531-6.689h1.748c.418 0 .798-.038 1.178-.076.38-.076.684-.152.95-.304.266-.152.494-.342.646-.57.152-.228.228-.532.228-.912 0-.342-.076-.646-.228-.874-.152-.228-.38-.418-.684-.57a2.52 2.52 0 00-.988-.304 6.29 6.29 0 00-1.216-.114h-.988c-.228 0-.456.038-.646.038v3.686zm0 1.368V11.4c.114 0 .266.039.456.039.152 0 .342.037.532.037h.684c.494 0 .95-.038 1.406-.114.456-.075.836-.19 1.178-.341a1.76 1.76 0 00.798-.685 1.98 1.98 0 00.304-1.102c0-.38-.076-.722-.228-.988a1.756 1.756 0 00-.646-.646c-.266-.152-.608-.266-1.026-.342a6.941 6.941 0 00-1.33-.114h-2.128v.038zm1.596 5.663h-.798c-.266 0-.57-.038-.836-.038-.266-.038-.57-.038-.836-.076s-.532-.076-.76-.152V.95c.228-.076.494-.114.76-.152.266-.038.57-.076.836-.076.266-.038.57-.038.836-.038h.76c.684 0 1.33.038 1.938.152.608.114 1.14.266 1.558.532.456.266.798.57 1.064.988.266.418.38.912.38 1.482 0 .646-.152 1.178-.456 1.634-.304.418-.722.722-1.254.95.722.19 1.254.532 1.672.988.418.456.608 1.102.608 1.9 0 1.216-.456 2.09-1.33 2.699-.836.532-2.242.836-4.142.836z" fill="#fff"/></svg>