<svg width="488" height="561" fill="none" xmlns="http://www.w3.org/2000/svg"><path fill-rule="evenodd" clip-rule="evenodd" d="M22.708 61.667C50.216 16.747 101.9-5.58 173.655 1.194l-.188 1.99C102.222-3.54 51.407 18.633 24.414 62.712-2.624 106.864-5.943 173.28 18.519 255.404c32.362 108.642 100.208 186.595 168.643 236.205 34.218 24.806 68.569 42.516 98.682 53.429 30.143 10.924 55.941 15.003 73.082 12.66 23.877-3.264 65.399-9.862 94.351-42.928 28.91-33.019 45.527-92.74 18.812-202.845l1.944-.472c26.785 110.395 10.276 170.911-19.251 204.635-29.487 33.677-71.714 40.329-95.586 43.592-17.608 2.407-43.765-1.792-74.033-12.761-30.298-10.981-64.814-28.781-99.175-53.69-68.723-49.82-136.876-128.116-169.385-237.254-24.538-82.376-21.357-149.461 6.105-194.308z" fill="url(#paint0_radial_1_414)"/><defs><radialGradient id="paint0_radial_1_414" cx="0" cy="0" r="1" gradientUnits="userSpaceOnUse" gradientTransform="matrix(495.99908 -299.50103 260.45491 431.3354 226.562 279.69)"><stop offset=".427" stop-color="#fff"/><stop offset="1" stop-color="#323232"/></radialGradient></defs></svg>