<svg width="180" height="43" fill="none" xmlns="http://www.w3.org/2000/svg"><path fill-rule="evenodd" clip-rule="evenodd" d="M94.587 28.881H82.464l-3.154 7.182h-5.168L85.96 9.234l2.584 5.89c0 .076-3.686 8.399-4.066 9.235h8.133l1.976 4.522zm-72.014 0H10.45l-3.154 7.182H2.128L13.947 9.234l2.584 5.89c0 .076-3.686 8.399-4.066 9.235h8.132l1.976 4.522zm82.046 7.182h-5.168L86.796 7.334h5.168l12.655 28.73zm68.745-28.881H168.5v12.465h-1.976l1.976 4.522V35.91h4.864V7.182zm-8.512 12.465h-9.348V7.182h-4.865v28.73h4.865V24.168h11.362l-2.014-4.522zM133.5 21.205c-3.382-2.014-7.904-1.862-10.906-3.914-1.672-1.14-1.824-3.763-.304-5.055l-1.9-4.256c-2.47 1.292-4.028 3.648-4.256 6.46-.304 4.257 2.47 7.183 6.27 8.513 2.508.874 5.51 1.14 7.828 2.394 1.9 1.026 2.66 2.66 1.482 4.598l2.052 4.674c4.865-3.306 4.713-10.45-.266-13.414zm-2.888 9.842c-.988.646-2.28.836-3.458.836-3.116 0-6.156-1.254-9.044-3.8l-3.04 3.648c2.736 2.774 7.524 4.56 11.97 4.636 1.976.038 3.876-.342 5.472-1.064l-1.9-4.256zm-6.954-19.57c3.078-1.027 7.942.265 10.146 2.28l2.585-3.649c-3.687-3.078-9.957-4.37-14.593-2.774l1.862 4.142zm-75.016.265h-4.256l-1.938-4.408h4.256l1.938 4.408zm17.595 24.321H61.07a2253.6 2253.6 0 00-6.194-14.022h2.014c2.85 0 5.13-2.318 5.13-5.13 0-2.85-2.318-5.13-5.13-5.13h-6.537l-1.938-4.409h8.513c5.282 0 9.576 4.294 9.576 9.576 0 3.61-2.014 6.765-4.978 8.399l4.712 10.716zM55.141 26.45h-6.765v9.614h-4.864V22.041h9.69l1.939 4.408zm-22.535 9.614h-5.169L14.783 7.334h5.168l12.655 28.73zM145.015.303h34.088v42.449h-34.088V.304zm-36.254 0h34.392v42.449h-34.392V.304zm-36.254 0H106.9v42.449H72.507V.304zm-36.253 0h34.391v42.449H36.254V.304zM0 .304h34.392v42.449H0V.304z" fill="#000"/></svg>