<svg width="20" height="25" viewBox="0 0 20 25" fill="none" xmlns="http://www.w3.org/2000/svg">
<path fill-rule="evenodd" clip-rule="evenodd" d="M9.9784 0C10.2532 0 10.5167 0.109158 10.711 0.303462C10.9053 0.497765 11.0145 0.761297 11.0145 1.03608L11.0145 20.4731L17.5335 13.952C17.7281 13.7575 17.9919 13.6482 18.2671 13.6482C18.5422 13.6482 18.8061 13.7575 19.0006 13.952C19.1952 14.1466 19.3044 14.4104 19.3044 14.6856C19.3044 14.9607 19.1952 15.2246 19.0006 15.4191L10.7119 23.7078C10.6157 23.8043 10.5014 23.8808 10.3755 23.9331C10.2496 23.9853 10.1147 24.0122 9.9784 24.0122C9.84212 24.0122 9.70717 23.9853 9.5813 23.9331C9.45543 23.8808 9.34109 23.8043 9.24485 23.7078L0.956188 15.4191C0.76164 15.2246 0.652344 14.9607 0.652344 14.6856C0.652344 14.4104 0.76164 14.1466 0.956188 13.952C1.15074 13.7575 1.4146 13.6482 1.68974 13.6482C1.96487 13.6482 2.22873 13.7575 2.42328 13.952L8.94231 20.4731L8.94231 1.03608C8.94231 0.761297 9.05147 0.497765 9.24578 0.303462C9.44008 0.109158 9.70361 0 9.9784 0Z" fill="white"/>
</svg>
